<svg width="26" height="26" viewBox="0 0 26 26" fill="none" xmlns="http://www.w3.org/2000/svg">
<path d="M18.4167 15.1666C19.4593 15.1628 20.4787 14.8581 21.3525 14.2891L21.6667 14.0833C21.8412 13.965 22.0044 13.8308 22.1542 13.6825L22.3817 13.4658C22.5723 13.2713 22.7463 13.0611 22.9017 12.8375L22.9667 12.7508C23.1421 12.492 23.2909 12.2162 23.4108 11.9275C23.4498 11.8471 23.4824 11.7638 23.5083 11.6783C23.5983 11.4568 23.6708 11.2286 23.725 10.9958L23.79 10.725C23.8311 10.4017 23.8456 10.0756 23.8333 9.74996V2.16663L20.5833 5.41663H16.25L13 2.16663V9.74996C13 11.1865 13.5707 12.5643 14.5865 13.5801C15.6023 14.5959 16.9801 15.1666 18.4167 15.1666ZM20.5833 7.58329C20.7976 7.58329 21.007 7.64683 21.1852 7.76587C21.3634 7.88491 21.5022 8.0541 21.5842 8.25205C21.6662 8.45001 21.6877 8.66783 21.6459 8.87797C21.6041 9.08812 21.5009 9.28115 21.3494 9.43266C21.1979 9.58417 21.0048 9.68734 20.7947 9.72914C20.5845 9.77094 20.3667 9.74949 20.1688 9.6675C19.9708 9.5855 19.8016 9.44665 19.6826 9.26849C19.5635 9.09034 19.5 8.88089 19.5 8.66663C19.5 8.37931 19.6141 8.10376 19.8173 7.90059C20.0205 7.69743 20.296 7.58329 20.5833 7.58329ZM16.25 7.58329C16.4643 7.58329 16.6737 7.64683 16.8519 7.76587C17.03 7.88491 17.1689 8.0541 17.2509 8.25205C17.3329 8.45001 17.3543 8.66783 17.3125 8.87797C17.2707 9.08812 17.1675 9.28115 17.016 9.43266C16.8645 9.58417 16.6715 9.68734 16.4613 9.72914C16.2512 9.77094 16.0334 9.74949 15.8354 9.6675C15.6375 9.5855 15.4683 9.44665 15.3492 9.26849C15.2302 9.09034 15.1667 8.88089 15.1667 8.66663C15.1667 8.37931 15.2808 8.10376 15.484 7.90059C15.6871 7.69743 15.9627 7.58329 16.25 7.58329Z" fill="#F7F7F7"/>
<path d="M11.9167 23.8333V18.4166H8.66667V23.8333H5.41667V12.8916C4.86565 12.8116 4.33911 12.6108 3.87467 12.3037C3.41024 11.9966 3.01937 11.5907 2.73 11.115C2.3802 10.5389 2.18608 9.88192 2.16667 9.20829C2.18631 8.66932 2.316 8.14007 2.54777 7.65307C2.77954 7.16608 3.10848 6.73165 3.51437 6.3765C3.92026 6.02135 4.39451 5.75299 4.90795 5.58792C5.4214 5.42284 5.96319 5.36455 6.5 5.41663C6.78906 5.434 7.07852 5.38986 7.34927 5.28712C7.62002 5.18438 7.86589 5.02538 8.07066 4.82062C8.27542 4.61585 8.43442 4.36998 8.53716 4.09923C8.6399 3.82848 8.68404 3.53902 8.66667 3.24996C8.66667 2.96264 8.7808 2.68709 8.98397 2.48393C9.18713 2.28076 9.46268 2.16663 9.75 2.16663C10.0373 2.16663 10.3129 2.28076 10.516 2.48393C10.7192 2.68709 10.8333 2.96264 10.8333 3.24996C10.8498 3.82349 10.749 4.39434 10.537 4.92753C10.3251 5.46072 10.0065 5.94501 9.60077 6.35073C9.19505 6.75644 8.71076 7.07503 8.17757 7.28698C7.64438 7.49892 7.07353 7.59975 6.5 7.58329C4.53917 7.58329 4.33333 8.83996 4.33333 9.21913C4.33333 9.59829 4.52833 10.8333 6.5 10.8333H12.0142C12.1733 11.7666 12.5344 12.6538 13.0722 13.433C13.6099 14.2122 14.3114 14.8644 15.1276 15.3442C15.9438 15.824 16.8549 16.1197 17.7973 16.2107C18.7396 16.3016 19.6905 16.1856 20.5833 15.8708V23.8333H17.3333V18.4166H15.1667V23.8333H11.9167Z" fill="#F7F7F7"/>
</svg>
